<svg width="55" height="54" viewBox="0 0 55 54" fill="none" xmlns="http://www.w3.org/2000/svg">
<g clip-path="url(#clip0)">
<path d="M2.2915 2.31265H52.7083V51.6873H2.2915V2.31265Z" fill="url(#paint0_radial)"/>
<path d="M2.29164 2.31305H52.7085V51.6877H2.29164V2.31305ZM0 53.995H55.0001V0.00585938H0V53.995ZM36.025 19.2481C36.025 19.0636 36.0938 18.9712 36.3001 18.9712H39.898C40.0812 18.9712 40.1729 19.0404 40.1729 19.2481V37.4522C40.1729 37.6366 40.1271 37.729 39.898 37.729H36.3459C36.1168 37.729 36.0479 37.6136 36.0479 37.4291V19.2481H36.025ZM35.773 14.0107C35.773 12.5341 36.8042 11.6573 38.1105 11.6573C39.5085 11.6573 40.448 12.6033 40.448 14.0107C40.448 15.5334 39.4626 16.364 38.0647 16.364C36.7354 16.3641 35.773 15.5334 35.773 14.0107ZM25.4605 26.8389C24.8189 24.2778 23.3064 18.6944 22.7334 15.9949H22.6875C22.2063 18.6944 20.9917 23.2626 20.0293 26.8389H25.4605ZM19.0896 30.5766L17.2792 37.4983C17.2334 37.6828 17.1646 37.7289 16.9355 37.7289H13.5667C13.3376 37.7289 13.2917 37.6597 13.3376 37.3829L19.8459 14.449C19.9604 14.0337 20.0292 13.6645 20.075 12.5341C20.075 12.3726 20.1438 12.3034 20.2583 12.3034H25.0708C25.2312 12.3034 25.3 12.3495 25.3459 12.5341L32.6333 37.429C32.6792 37.6135 32.6333 37.7289 32.45 37.7289H28.6458C28.4625 37.7289 28.3479 37.6828 28.3021 37.5214L26.4229 30.5766H19.0896Z" fill="#FF7F18"/>
</g>
<defs>
<radialGradient id="paint0_radial" cx="0" cy="0" r="1" gradientUnits="userSpaceOnUse" gradientTransform="translate(18.8963 13.3776) scale(38.3168 37.3494)">
<stop stop-color="#423325" stop-opacity="0.98"/>
<stop offset="1" stop-color="#1C0A00"/>
</radialGradient>
<clipPath id="clip0">
<rect width="55" height="54" fill="white"/>
</clipPath>
</defs>
</svg>
