<svg width="55" height="36" viewBox="0 0 55 36" fill="none" xmlns="http://www.w3.org/2000/svg">
<g clip-path="url(#clip0)">
<path d="M10.4913 15.4719L16.5486 11.3916L27.4957 18.7834L55 0.223458L0 0.212158L10.4913 7.29949V15.4719ZM27.4953 16.1677L17.6254 9.49801L48.8871 2.47388L27.4953 16.1677V16.1677ZM7.08813 2.3749L48.301 1.53156L12.9276 6.33269L7.08813 2.3749V2.3749Z" fill="#235A5A"/>
<path d="M54.9996 2.79956L27.4807 21.4137L27.4725 21.4083L27.4719 21.4085L16.5344 13.9989L8.26505 19.6001V8.4323L0.0618896 2.86569V29.1513C0.166089 31.2531 1.13439 33.0783 2.50595 34.3851C3.2115 35.0563 4.16304 35.7299 5.94925 35.9864L7.17988 35.1534L5.95033 35.9864C6.21073 36.0203 6.47309 36.0377 6.7358 36.0387H27.8519L27.8526 36.0383H48.3171C51.9922 36.0383 55 32.764 55 28.761V17.6504L54.9996 17.6497V2.79956Z" fill="#235A5A"/>
<path d="M8.26506 8.43234L0.0618896 2.86572V25.1563L8.26506 19.6001V8.43234Z" fill="#82BFBE"/>
<path d="M48.3171 36.0382C51.9922 36.0382 55 32.764 55 28.761V17.6504L27.8519 36.0382H48.3171" fill="#235A5A"/>
<path d="M55 2.79907L27.4807 21.4139L27.4725 21.4082L5.95032 35.9864C6.21072 36.0202 6.47308 36.0377 6.73579 36.0387H27.8519L54.9996 17.6499V2.79907H55Z" fill="#2C7A79"/>
<path d="M16.5344 13.9988L0.0618896 25.1561V29.1511C0.166089 31.253 1.13439 33.0782 2.50595 34.385C3.2115 35.0561 4.16304 35.7297 5.94925 35.9863L27.4796 21.4138L16.5344 13.9988Z" fill="#389798"/>
</g>
<defs>
<clipPath id="clip0">
<rect width="55" height="36" fill="white"/>
</clipPath>
</defs>
</svg>
