<svg width="55" height="54" viewBox="0 0 55 54" fill="none" xmlns="http://www.w3.org/2000/svg">
<rect width="55" height="54" rx="12" fill="#2F323A"/>
<path d="M22.5011 42.9999C25.5365 42.9999 28 40.6106 28 37.6666V32.3333H22.5011C19.4657 32.3333 17.0022 34.7226 17.0022 37.6666C17.0022 40.6106 19.4657 42.9999 22.5011 42.9999Z" fill="#0ACF83"/>
<path d="M17.0022 27.0001C17.0022 24.0561 19.4657 21.6667 22.5011 21.6667H28V32.3334H22.5011C19.4657 32.3334 17.0022 29.9441 17.0022 27.0001Z" fill="#A259FF"/>
<path d="M17.0032 16.3333C17.0032 13.3893 19.4667 11 22.5021 11H28.001V21.6667H22.5021C19.4667 21.6667 17.0032 19.2773 17.0032 16.3333Z" fill="#F24E1E"/>
<path d="M28 11H33.4989C36.5343 11 38.9978 13.3893 38.9978 16.3333C38.9978 19.2773 36.5343 21.6667 33.4989 21.6667H28V11Z" fill="#FF7262"/>
<path d="M38.9978 27.0001C38.9978 29.9441 36.5343 32.3334 33.4989 32.3334C30.4635 32.3334 28 29.9441 28 27.0001C28 24.0561 30.4635 21.6667 33.4989 21.6667C36.5343 21.6667 38.9978 24.0561 38.9978 27.0001Z" fill="#1ABCFE"/>
</svg>
