<?xml version="1.0" encoding="utf-8"?>
<!-- Generator: Adobe Illustrator 22.0.1, SVG Export Plug-In . SVG Version: 6.00 Build 0)  -->
<svg version="1.1" id="Layer_2" xmlns="http://www.w3.org/2000/svg" xmlns:xlink="http://www.w3.org/1999/xlink" x="0px" y="0px"
	 viewBox="0 0 556.6 221.7" style="enable-background:new 0 0 556.6 221.7;" xml:space="preserve">
<style type="text/css">
	.st0{fill:#FFFFFF;}
	.st1{display:none;}
	.st2{display:inline;}
</style>
<g>
	<g>
		<g>
			<path class="st0" d="M163.2,112.8H184v14.4h-20.8v38h-16V75.5h40V90h-24V112.8z"/>
			<path class="st0" d="M208.6,75.5v89.7h-15.9V75.5H208.6z"/>
			<path class="st0" d="M267.5,165.2h-16l-18.7-47.8v47.8h-16V75.5h16l18.7,49.9V75.5h16V165.2z"/>
			<path class="st0" d="M291.1,129.2v36h-16V75.5h24.4c8.8,0,15.1,2.1,18.8,6.4c3.7,4.2,5.5,11,5.5,20.4c0,6-0.8,11-2.5,14.9
				s-4.3,7-8.1,9l13.4,39h-16.6l-11.3-36H291.1z M299.4,114.9c3.2,0,5.4-1.1,6.6-3.2c1.2-2.1,1.8-5.3,1.8-9.4c0-4.2-0.6-7.3-1.8-9.4
				c-1.2-2.1-3.4-3.1-6.7-3.1h-8.3v25.1H299.4z"/>
			<path class="st0" d="M331.1,140.5v-40.4c0-8.5,2.4-14.9,7.1-19.3c4.8-4.4,11-6.6,18.8-6.6c7.5,0,13.6,2.2,18.1,6.6
				c4.5,4.4,6.8,10.8,6.8,19.3v40.4c0,8.3-2.4,14.7-7.2,19.1c-4.8,4.4-11,6.6-18.7,6.6c-7.7,0-13.8-2.2-18.3-6.6
				C333.4,155.3,331.1,148.9,331.1,140.5z M366.1,138.7v-36c0-4.6-0.8-8.1-2.3-10.5c-1.6-2.4-3.9-3.6-7-3.6c-3.4,0-5.8,1.2-7.3,3.5
				c-1.5,2.3-2.3,5.8-2.3,10.5v36c0,8.8,3.2,13.1,9.6,13.1c3,0,5.4-1.1,7-3.4C365.3,146.1,366.1,142.9,366.1,138.7z"/>
			<path class="st0" d="M388.7,140.5v-40.4c0-8.5,2.4-14.9,7.1-19.3c4.8-4.4,11-6.6,18.8-6.6c7.5,0,13.5,2.2,18.1,6.5
				c4.6,4.3,6.9,10.9,6.9,19.8v2.7h-16v-2.6c0-4.1-0.8-7.1-2.5-9s-4-2.9-6.8-2.9c-3.4,0-5.8,1.2-7.3,3.5c-1.5,2.3-2.3,5.8-2.3,10.5
				v36c0,8.8,3.2,13.1,9.6,13.1c2.9,0,5.1-1,6.8-3c1.7-2,2.5-4.9,2.5-8.8v-2.3h15.9v2.5c0,8.7-2.4,15.2-7.2,19.6
				c-4.8,4.4-11,6.6-18.5,6.6c-7.7,0-13.8-2.2-18.3-6.6C391,155.3,388.7,148.9,388.7,140.5z"/>
			<path class="st0" d="M462.7,144.9v20.3h-15.9V75.5h15.9v42.2l19.1-42.2h16L479,112.4l21.6,52.8h-17l-13.6-34.7L462.7,144.9z"/>
			<path class="st0" d="M500.3,139.6h15.1c0.2,4.4,1.1,7.7,2.7,9.7c1.6,2.1,4,3.1,7.1,3.1c3.1,0,5.4-1,6.8-2.9
				c1.4-1.9,2.1-4.9,2.1-9.1c0-3.5-0.8-6.2-2.4-8.3c-1.6-2-4.3-3.9-8.1-5.7l-6.1-2.7c-5.8-2.6-10-5.8-12.5-9.6
				c-2.6-3.8-3.8-8.9-3.8-15.3c0-7.5,2.2-13.6,6.6-18.1c4.4-4.5,10.3-6.8,17.7-6.8c7.4,0,13.1,2.2,17.1,6.7c4,4.5,6.2,10.9,6.4,19.3
				h-14.7c-0.1-4.1-0.8-7.1-2.1-9.2c-1.3-2-3.6-3.1-6.7-3.1c-5.8,0-8.7,3.4-8.7,10.3c0,3.1,0.7,5.6,2.1,7.5c1.4,1.9,3.8,3.5,7.2,5
				l5.8,2.6c6.2,2.8,10.8,6.2,13.6,10.4c2.8,4.2,4.2,9.7,4.2,16.6c0,8.3-2.2,14.7-6.5,19.2c-4.3,4.5-10.5,6.8-18.5,6.8
				c-7.9,0-13.9-2.3-18.1-6.9C502.6,154.8,500.4,148.2,500.3,139.6z"/>
		</g>
	</g>
	<g class="st1">
		<g class="st2">
			<path class="st0" d="M162,172.6v-26.1c0-6.3,1.6-11.1,4.7-14.3s7.2-4.8,12.4-4.8c5,0,9.1,1.5,12.2,4.5c3.1,3,4.7,7.3,4.7,12.8
				v1.1h-6.6v-1.1c0-3.6-0.9-6.4-2.8-8.4c-1.8-2-4.3-2.9-7.5-2.9c-6.9,0-10.4,4.6-10.4,13.7v25.5c0,8.6,3.5,12.9,10.4,12.9
				c3.3,0,5.9-1,7.6-3.1c1.8-2.1,2.6-5.2,2.6-9.5v-8.7h-10.3v-5.5h16.9v13.9c0,6.3-1.5,11-4.6,14.1c-3.1,3.1-7.2,4.7-12.2,4.7
				c-5.1,0-9.3-1.6-12.4-4.8C163.5,183.6,162,178.8,162,172.6z"/>
			<path class="st0" d="M210.3,163.4v27.3h-6.6v-62.5h16.5c5.5,0,9.5,1.4,12,4.3c2.5,2.9,3.8,7.3,3.8,13.3c0,8.9-3.1,14.4-9.2,16.5
				l11,28.3h-7.1l-10.3-27.3H210.3z M220.1,157.6c3.2,0,5.5-1,7-2.9c1.5-2,2.2-4.9,2.2-8.7c0-3.9-0.7-6.9-2.1-8.8
				c-1.4-2-3.8-2.9-7.1-2.9h-9.8v23.5H220.1z"/>
			<path class="st0" d="M244.6,172.6v-26.1c0-6.4,1.5-11.2,4.6-14.3c3.1-3.1,7.2-4.7,12.3-4.7c5.1,0,9.2,1.6,12.3,4.7
				c3.1,3.1,4.6,7.9,4.6,14.3v26.1c0,6.3-1.6,11-4.7,14.2c-3.1,3.2-7.2,4.8-12.3,4.8c-5.1,0-9.2-1.6-12.3-4.8
				C246.1,183.6,244.6,178.8,244.6,172.6z M271.8,172.7v-25.5c0-4.6-0.9-8-2.6-10.3c-1.8-2.3-4.3-3.4-7.6-3.4
				c-3.5,0-6.1,1.1-7.8,3.4c-1.7,2.2-2.6,5.7-2.6,10.3v25.5c0,8.6,3.5,12.9,10.4,12.9c3.3,0,5.8-1.1,7.6-3.2
				C270.9,180.2,271.8,176.9,271.8,172.7z"/>
			<path class="st0" d="M288.4,183.5c-1.4-2.5-2.1-5.4-2.1-8.7v-46.5h6.6v46.2c0,3.6,0.9,6.3,2.6,8.2c1.7,1.9,4.1,2.9,7.1,2.9
				c3,0,5.4-1,7.1-2.9c1.7-1.9,2.6-4.6,2.6-8.2v-46.2h6.6v46.5c0,5-1.5,9-4.5,12.1c-3,3-6.9,4.6-11.8,4.6c-3.1,0-5.9-0.7-8.4-2.1
				C291.7,188,289.8,186.1,288.4,183.5z"/>
			<path class="st0" d="M359.8,146.5c0,11.9-5.3,17.8-16,17.8h-9.6v26.4h-6.6v-62.5h16.2c5.6,0,9.6,1.5,12.2,4.6
				C358.5,135.9,359.8,140.4,359.8,146.5z M353.2,146.5c0-4.3-0.8-7.5-2.4-9.4c-1.6-1.9-4.1-2.9-7.5-2.9h-9.2v24.3h9.2
				c3.4,0,5.9-0.9,7.5-2.8C352.4,153.8,353.2,150.7,353.2,146.5z"/>
		</g>
	</g>
	<path class="st0" d="M133.7,94.2c0.6-0.3,0.9-0.9,0.9-1.5v0c0,0,0,0,0,0s0,0,0,0V55.9c0,0,0-0.1,0-0.1c0-0.1,0-0.2,0-0.2
		c0-0.1,0-0.2-0.1-0.2c0-0.1-0.1-0.1-0.1-0.2c0,0,0-0.1,0-0.1c0,0-0.1-0.1-0.1-0.1c0-0.1-0.1-0.1-0.1-0.2c-0.1-0.1-0.1-0.1-0.2-0.2
		c-0.1-0.1-0.1-0.1-0.2-0.2c0,0,0-0.1-0.1-0.1l-96-55.1c-0.1,0-0.2-0.1-0.3-0.1c-0.1,0-0.1-0.1-0.2-0.1c0,0-0.1,0-0.1,0
		c-0.1,0-0.2,0-0.3,0c0,0,0,0,0,0c-0.1,0-0.3,0-0.4,0.1c-0.2,0-0.3,0.1-0.4,0.2c0,0,0,0,0,0L4.1,17.6c0,0-0.1,0.1-0.1,0.1
		c0,0-0.1,0.1-0.1,0.1c-0.3,0.3-0.5,0.6-0.6,1.1c0,0.1,0,0.1,0,0.2c0,0,0,0.1,0,0.1c0,0,0,0,0,0s0,0,0,0v73.5c0,0,0,0,0,0s0,0,0,0
		v110.3c0,0.6,0.3,1.2,0.9,1.5l31.8,18.4c0.3,0.2,0.6,0.2,0.9,0.2c0.3,0,0.6-0.1,0.9-0.2l31.8-18.4c0,0,0,0,0,0
		c0.1-0.1,0.3-0.2,0.4-0.3c0.3-0.3,0.5-0.8,0.5-1.3c0,0,0,0,0,0v-33.6L99.5,186c0.3,0.2,0.6,0.2,0.9,0.2c0.3,0,0.6-0.1,0.9-0.2
		l31.8-18.4c0.1,0,0.1-0.1,0.2-0.1c0.1-0.1,0.2-0.2,0.3-0.2c0.1-0.1,0.1-0.2,0.2-0.3c0.1-0.1,0.1-0.2,0.1-0.3c0-0.1,0.1-0.2,0.1-0.4
		c0-0.1,0-0.1,0-0.2v-36.8c0-0.2-0.1-0.4-0.1-0.6c0-0.1,0-0.1-0.1-0.1c-0.1-0.2-0.2-0.4-0.3-0.5c0,0,0,0,0,0
		c-0.1-0.1-0.2-0.2-0.4-0.3l-28.9-16.7l29.2-16.9C133.6,94.2,133.6,94.2,133.7,94.2z M130.5,165.1l-28.3,16.3v-32.6l28.3-16.3V165.1
		z M23.7,211.6l-15.2-8.8L35,187.6v30.6L23.7,211.6z M67.7,20.7c0.1,0.1,0.3,0.1,0.4,0.1l61.1,35.1L101,72.2L38.6,36.5V3.8
		L67.7,20.7z M68.6,131.4l30,17.3v32.6l-29.1-16.8c0,0,0,0,0,0l-29.1-16.8L68.6,131.4z M6.8,91.6V22.2L35,38.5v69.4L6.8,91.6z
		 M38.6,77.3l26.5,15.3l-26.5,15.3V77.3z M6.8,95.7L35,112v35.7v35.7L6.8,199.8V95.7z M38.6,187.6l2.2,1.3l24.2,14l-26.5,15.3V187.6
		z M46,187.8l-7.4-4.3v-32.6l28.3,16.3v32.6L46,187.8z M38.6,144.6v-30.6l26.5,15.3L38.6,144.6z M69.5,91.1
		C69.5,91.1,69.5,91.1,69.5,91.1L38.6,73.2V40.6l60.6,34.7v32.9L69.5,91.1z M102.7,77.3l26.4,15.3l-26.4,15.3V77.3z M104.5,74.2
		L131,59v30.5L104.5,74.2z M35,3.8v30.6L8.6,19.1L35,3.8z M100.5,145.7l-30.9-17.9L40.4,111l28.3-16.3l31.4,18.2l28.6,16.5
		L100.5,145.7z"/>
</g>
</svg>
