<svg width="55" height="54" viewBox="0 0 55 54" fill="none" xmlns="http://www.w3.org/2000/svg">
<g clip-path="url(#clip0)">
<path d="M2.2915 2.31268H52.7083V51.6873H2.2915V2.31268Z" fill="url(#paint0_radial)"/>
<path d="M2.29164 2.31372H52.7085V51.6884H2.29164V2.31372ZM0 53.9956H55.0001V0.00653076H0V53.9956ZM34.7876 22.4327C34.4438 22.2712 33.9854 22.202 33.4354 22.202C30.4792 22.202 28.4167 24.4862 28.4167 28.2931C28.4167 32.6307 30.525 34.3841 33.1605 34.3841C33.7334 34.3841 34.3292 34.3149 34.7876 34.1073V22.4327ZM33.5729 18.672C34.0542 18.672 34.3292 18.672 34.7875 18.7181V12.5809C34.7875 12.4194 34.9021 12.3502 35.0166 12.3502H38.7291C38.9124 12.3502 38.9582 12.4194 38.9582 12.5347V34.1074C38.9582 34.7533 38.9582 35.5609 39.0728 36.4376C39.0728 36.5991 39.027 36.6222 38.8666 36.7145C36.8957 37.6605 34.8104 38.0758 32.8625 38.0758C27.7979 38.0758 24.177 34.915 24.177 28.4777C24.1542 22.9634 27.775 18.672 33.5729 18.672ZM20.1209 37.4298C20.1209 37.6604 20.0751 37.7297 19.823 37.7297H16.2938C16.0647 37.7297 15.9958 37.6143 15.9958 37.4298V12.6501C15.9958 12.4194 16.1104 12.3501 16.2938 12.3501H19.8459C20.0292 12.3501 20.1209 12.4193 20.1209 12.627V37.4298Z" fill="#FF408C"/>
</g>
<defs>
<radialGradient id="paint0_radial" cx="0" cy="0" r="1" gradientUnits="userSpaceOnUse" gradientTransform="translate(18.8963 13.3776) scale(38.3167 37.3493)">
<stop stop-color="#4B2B36" stop-opacity="0.98"/>
<stop offset="1" stop-color="#250012"/>
</radialGradient>
<clipPath id="clip0">
<rect width="55" height="54" fill="white"/>
</clipPath>
</defs>
</svg>
