<svg width="55" height="54" viewBox="0 0 55 54" fill="none" xmlns="http://www.w3.org/2000/svg">
<g clip-path="url(#clip0)">
<path d="M47.3001 29.689C47.2949 30.1631 47.103 30.6159 46.766 30.9493C46.429 31.2827 45.9741 31.4697 45.5 31.4697C45.026 31.4697 44.5711 31.2827 44.2341 30.9493C43.897 30.6159 43.7051 30.1631 43.7 29.689V13.5C43.7051 13.026 43.897 12.5731 44.2341 12.2397C44.5711 11.9063 45.026 11.7193 45.5 11.7193C45.9741 11.7193 46.429 11.9063 46.766 12.2397C47.103 12.5731 47.2949 13.026 47.3001 13.5V29.689ZM46.6719 40.9558C46.3937 41.194 39.7257 46.7893 27.5 46.7893C15.2745 46.7893 8.60675 41.1938 8.32852 40.9556C7.96612 40.6449 7.74199 40.2029 7.7054 39.7269C7.66881 39.2509 7.82276 38.7799 8.13341 38.4174C8.44338 38.0555 8.88426 37.8313 9.35931 37.7941C9.83437 37.7568 10.3048 37.9095 10.6674 38.2187C10.7731 38.3073 16.7274 43.189 27.5002 43.189C38.4082 43.189 44.2704 38.2721 44.3284 38.2225C45.0816 37.5756 46.2201 37.6625 46.8666 38.4176C47.1773 38.78 47.3314 39.2511 47.2949 39.7271C47.2584 40.2031 47.0343 40.6451 46.6719 40.9558V40.9558ZM7.69993 13.5C7.70506 13.026 7.89697 12.5731 8.23398 12.2397C8.571 11.9063 9.02591 11.7193 9.49996 11.7193C9.97402 11.7193 10.4289 11.9063 10.7659 12.2397C11.103 12.5731 11.2949 13.026 11.3 13.5V29.689C11.2949 30.1631 11.103 30.6159 10.7659 30.9493C10.4289 31.2827 9.97402 31.4697 9.49996 31.4697C9.02591 31.4697 8.571 31.2827 8.23398 30.9493C7.89697 30.6159 7.70506 30.1631 7.69993 29.689V13.5ZM16.7002 9.89993C16.7074 9.42733 16.9003 8.97654 17.237 8.64489C17.5738 8.31324 18.0275 8.12735 18.5001 8.12735C18.9728 8.12735 19.4265 8.31324 19.7633 8.64489C20.1 8.97654 20.2928 9.42733 20.3001 9.89993V33.947C20.2928 34.4196 20.1 34.8704 19.7633 35.2021C19.4265 35.5337 18.9728 35.7196 18.5001 35.7196C18.0275 35.7196 17.5738 35.5337 17.237 35.2021C16.9003 34.8704 16.7074 34.4196 16.7002 33.947V9.90014V9.89993ZM25.7001 8.9891C25.7 8.75272 25.7466 8.51866 25.837 8.30027C25.9275 8.08188 26.0601 7.88344 26.2272 7.7163C26.3943 7.54915 26.5928 7.41657 26.8112 7.32613C27.0296 7.23568 27.2636 7.18914 27.5 7.18917C27.7364 7.18912 27.9705 7.23563 28.1889 7.32607C28.4073 7.4165 28.6058 7.54908 28.7729 7.71622C28.9401 7.88337 29.0727 8.08181 29.1632 8.30022C29.2536 8.51862 29.3002 8.75271 29.3001 8.9891V35.089C29.295 35.5631 29.1031 36.0159 28.7661 36.3493C28.4291 36.6827 27.9742 36.8697 27.5001 36.8697C27.0261 36.8697 26.5711 36.6827 26.2341 36.3493C25.8971 36.0159 25.7052 35.5631 25.7001 35.089V8.9891V8.9891ZM34.7001 9.89993C34.7074 9.42733 34.9002 8.97654 35.237 8.64489C35.5737 8.31324 36.0274 8.12735 36.5001 8.12735C36.9727 8.12735 37.4264 8.31324 37.7632 8.64489C38.0999 8.97654 38.2928 9.42733 38.3 9.89993V33.947C38.2928 34.4196 38.0999 34.8704 37.7632 35.2021C37.4264 35.5337 36.9727 35.7196 36.5001 35.7196C36.0274 35.7196 35.5737 35.5337 35.237 35.2021C34.9002 34.8704 34.7074 34.4196 34.7001 33.947V9.90014V9.89993ZM47.75 0H7.25C3.5221 0 0.5 3.0221 0.5 6.75V47.25C0.5 50.9777 3.5221 54 7.25 54H47.75C51.4779 54 54.5 50.9777 54.5 47.25V6.75C54.5 3.0221 51.4779 0 47.75 0Z" fill="#1F8DED"/>
</g>
<defs>
<clipPath id="clip0">
<rect width="54" height="54" fill="white" transform="translate(0.5)"/>
</clipPath>
</defs>
</svg>
