<?xml version="1.0" encoding="utf-8"?>
<!-- Generator: Adobe Illustrator 24.3.0, SVG Export Plug-In . SVG Version: 6.00 Build 0)  -->
<svg version="1.1" id="Layer_1" xmlns="http://www.w3.org/2000/svg" xmlns:xlink="http://www.w3.org/1999/xlink" x="0px" y="0px"
	 viewBox="0 0 2048 2048" style="enable-background:new 0 0 2048 2048;" xml:space="preserve">
<style type="text/css">
	.st0{fill:#E1EFFF;}
	.st1{fill:#F7E07F;}
	.st2{fill:#B4D996;}
	.st3{fill:#BFE69F;}
	.st4{fill:#E6C86B;}
	.st5{fill:#B0CCDD;}
	.st6{fill:#AACC8B;}
</style>
<g>
	<path class="st0" d="M1732,1596.97H316c-33.14,0-60-26.86-60-60V511.03c0-33.14,26.86-60,60-60h1416c33.14,0,60,26.86,60,60
		v1025.94C1792,1570.11,1765.14,1596.97,1732,1596.97z"/>
	<path class="st1" d="M1792,654.8H256V511.03c0-33.14,26.86-60,60-60h1416c33.14,0,60,26.86,60,60V654.8z"/>
	<rect x="1119.17" y="451.03" class="st2" width="336.41" height="203.77"/>
	<rect x="782.76" y="451.03" class="st3" width="336.41" height="203.77"/>
	<g>
		<path class="st4" d="M619.12,577.69H419.64c-13.68,0-24.77-11.09-24.77-24.77c0-13.68,11.09-24.77,24.77-24.77h199.48
			c13.68,0,24.77,11.09,24.77,24.77C643.89,566.6,632.8,577.69,619.12,577.69z"/>
	</g>
	<g>
		<g>
			<path class="st5" d="M1258.32,844H407.72c-13.68,0-24.77-11.09-24.77-24.77c0-13.68,11.09-24.77,24.77-24.77h850.61
				c13.68,0,24.77,11.09,24.77,24.77C1283.1,832.91,1272.01,844,1258.32,844z"/>
		</g>
		<g>
			<path class="st5" d="M1640.28,844h-289.05c-13.68,0-24.77-11.09-24.77-24.77c0-13.68,11.09-24.77,24.77-24.77h289.05
				c13.68,0,24.77,11.09,24.77,24.77C1665.06,832.91,1653.97,844,1640.28,844z"/>
		</g>
		<g>
			<path class="st5" d="M841.81,997.33H407.72c-13.68,0-24.77-11.09-24.77-24.77c0-13.68,11.09-24.77,24.77-24.77h434.09
				c13.68,0,24.77,11.09,24.77,24.77C866.58,986.24,855.49,997.33,841.81,997.33z"/>
		</g>
		<g>
			<path class="st5" d="M1640.28,997.33H936.26c-13.68,0-24.77-11.09-24.77-24.77c0-13.68,11.09-24.77,24.77-24.77h704.03
				c13.68,0,24.77,11.09,24.77,24.77C1665.06,986.24,1653.97,997.33,1640.28,997.33z"/>
		</g>
		<g>
			<path class="st5" d="M1210.32,1150.66H407.72c-13.68,0-24.77-11.09-24.77-24.77s11.09-24.77,24.77-24.77h802.61
				c13.68,0,24.77,11.09,24.77,24.77S1224.01,1150.66,1210.32,1150.66z"/>
		</g>
		<g>
			<path class="st5" d="M1640.28,1150.66h-326.22c-13.68,0-24.77-11.09-24.77-24.77s11.09-24.77,24.77-24.77h326.22
				c13.68,0,24.77,11.09,24.77,24.77S1653.97,1150.66,1640.28,1150.66z"/>
		</g>
		<g>
			<path class="st5" d="M748.9,1303.99H407.72c-13.68,0-24.77-11.09-24.77-24.77c0-13.68,11.09-24.77,24.77-24.77H748.9
				c13.68,0,24.77,11.09,24.77,24.77C773.68,1292.9,762.59,1303.99,748.9,1303.99z"/>
		</g>
		<g>
			<path class="st5" d="M1640.28,1303.99H844.9c-13.68,0-24.77-11.09-24.77-24.77c0-13.68,11.09-24.77,24.77-24.77h795.38
				c13.68,0,24.77,11.09,24.77,24.77C1665.06,1292.9,1653.97,1303.99,1640.28,1303.99z"/>
		</g>
		<g>
			<path class="st5" d="M1043.1,1457.32H407.72c-13.68,0-24.77-11.09-24.77-24.77s11.09-24.77,24.77-24.77h635.38
				c13.68,0,24.77,11.09,24.77,24.77S1056.78,1457.32,1043.1,1457.32z"/>
		</g>
		<g>
			<path class="st5" d="M1640.28,1457.32h-516.67c-13.68,0-24.77-11.09-24.77-24.77s11.09-24.77,24.77-24.77h516.67
				c13.68,0,24.77,11.09,24.77,24.77S1653.97,1457.32,1640.28,1457.32z"/>
		</g>
	</g>
	<path class="st6" d="M1792,654.8h-336.42V451.03H1732c33.14,0,60,26.86,60,60V654.8z"/>
</g>
</svg>
