<svg width="60" height="54" viewBox="0 0 60 54" fill="none" xmlns="http://www.w3.org/2000/svg">
<path fill-rule="evenodd" clip-rule="evenodd" d="M12.1913 19.403L29.9374 53.9378L0.109375 19.403H12.1913Z" fill="#EA6C00"/>
<path fill-rule="evenodd" clip-rule="evenodd" d="M47.6886 19.403L29.9425 53.9378L59.7705 19.403H47.6886Z" fill="#EA6C00"/>
<path fill-rule="evenodd" clip-rule="evenodd" d="M12.1909 19.403H47.6832L29.937 53.9378L12.1909 19.403Z" fill="#FDAD00"/>
<path fill-rule="evenodd" clip-rule="evenodd" d="M29.937 0.263733L13.125 2.03066L12.1909 19.403L29.937 0.263733Z" fill="#FDD231"/>
<path fill-rule="evenodd" clip-rule="evenodd" d="M29.9365 0.263733L46.7486 2.03066L47.6826 19.403L29.9365 0.263733Z" fill="#FDD231"/>
<path fill-rule="evenodd" clip-rule="evenodd" d="M59.7705 19.4029L46.7546 2.03064L47.6886 19.4029H59.7705Z" fill="#FDAD00"/>
<path fill-rule="evenodd" clip-rule="evenodd" d="M0.109375 19.4029L13.1253 2.03064L12.1913 19.4029H0.109375Z" fill="#FDAD00"/>
<path fill-rule="evenodd" clip-rule="evenodd" d="M29.937 0.263733L12.1909 19.403H47.6832L29.937 0.263733Z" fill="#FEEEB7"/>
</svg>
