<?xml version="1.0" encoding="utf-8"?>
<!-- Generator: Adobe Illustrator 24.3.0, SVG Export Plug-In . SVG Version: 6.00 Build 0)  -->
<svg version="1.1" id="Layer_1" xmlns="http://www.w3.org/2000/svg" xmlns:xlink="http://www.w3.org/1999/xlink" x="0px" y="0px"
	 viewBox="0 0 2048 2048" style="enable-background:new 0 0 2048 2048;" xml:space="preserve">
<style type="text/css">
	.st0{fill:#E1EFFF;}
	.st1{fill:#F7E07F;}
	.st2{fill:#E6C86B;}
	.st3{fill:#72B8CE;}
</style>
<g>
	<g>
		<path class="st0" d="M1732,1596.97H316c-33.14,0-60-26.86-60-60V511.03c0-33.14,26.86-60,60-60h1416c33.14,0,60,26.86,60,60
			v1025.94C1792,1570.11,1765.14,1596.97,1732,1596.97z"/>
		<g>
			<path class="st1" d="M1792,654.8H256v0V512.96c0-34.2,27.73-61.94,61.94-61.94h1412.13c34.21,0,61.94,27.74,61.94,61.94V654.8
				L1792,654.8z"/>
			<g>
				<path class="st2" d="M1652.52,577.69h-616.26c-13.68,0-24.77-11.09-24.77-24.77c0-13.68,11.09-24.77,24.77-24.77h616.26
					c13.68,0,24.77,11.09,24.77,24.77C1677.3,566.6,1666.21,577.69,1652.52,577.69z"/>
			</g>
			<g>
				<circle class="st2" cx="425.94" cy="552.92" r="30.46"/>
				<circle class="st2" cx="553.42" cy="552.92" r="30.46"/>
				<circle class="st2" cx="680.91" cy="552.92" r="30.46"/>
			</g>
		</g>
	</g>
	<g>
		<g>
			<g>
				<path class="st3" d="M845.82,1310.13c-5.24,0-10.53-1.66-15.02-5.09l-208.78-159.47c-6.14-4.69-9.74-11.97-9.74-19.69
					c0-7.72,3.6-15,9.74-19.69L830.8,946.73c10.87-8.3,26.42-6.22,34.73,4.65c8.3,10.87,6.22,26.42-4.65,34.73l-183.01,139.78
					l183.01,139.78c10.87,8.31,12.96,23.85,4.65,34.73C860.65,1306.78,853.28,1310.13,845.82,1310.13z"/>
			</g>
			<g>
				<path class="st3" d="M1202.18,1310.13c-7.46,0-14.83-3.35-19.71-9.74c-8.3-10.87-6.22-26.42,4.65-34.73l183.01-139.78
					l-183.01-139.78c-10.87-8.3-12.96-23.85-4.65-34.73c8.31-10.87,23.85-12.95,34.73-4.65l208.79,159.47
					c6.14,4.69,9.74,11.97,9.74,19.69c0,7.72-3.6,15-9.74,19.69l-208.79,159.47C1212.71,1308.47,1207.43,1310.13,1202.18,1310.13z"
					/>
			</g>
		</g>
		<g>
			<path class="st3" d="M955.79,1394.8c-2.21,0-4.45-0.3-6.68-0.92c-13.18-3.68-20.88-17.35-17.19-30.53l136.45-488.26
				c3.68-13.18,17.35-20.88,30.53-17.19c13.18,3.68,20.87,17.35,17.19,30.53l-136.45,488.26
				C976.58,1387.63,966.62,1394.8,955.79,1394.8z"/>
		</g>
	</g>
</g>
</svg>
