<svg width="55" height="54" viewBox="0 0 55 54" fill="none" xmlns="http://www.w3.org/2000/svg">
<g clip-path="url(#clip0)">
<path d="M49.6048 0H5.39523C2.69164 0 0.5 2.19164 0.5 4.89523V49.1048C0.5 51.8084 2.69164 54 5.39523 54H49.6048C52.3084 54 54.5 51.8084 54.5 49.1048V4.89523C54.5 2.19164 52.3084 0 49.6048 0Z" fill="#DC395F"/>
<path d="M18.5467 16.99C20.3418 16.99 21.8456 15.583 21.8456 13.739C21.8456 11.8962 20.3418 10.4895 18.5467 10.4895C16.7516 10.4895 15.2483 11.8962 15.2483 13.739C15.2483 15.5828 16.7516 16.99 18.5467 16.99ZM11.7069 34.3965C11.513 35.2213 11.4158 36.1119 11.4158 36.8384C11.4158 39.701 12.9681 41.6013 16.2669 41.6013C19.0028 41.6013 21.2208 39.9767 22.8178 37.3533L21.8426 41.2668H27.2753L30.3803 28.8132C31.1566 25.6601 32.6603 24.0235 34.9406 24.0235C36.7354 24.0235 37.8511 25.1398 37.8511 26.9825C37.8511 27.5164 37.8026 28.0979 37.6085 28.7289L36.0075 34.4531C35.7649 35.2778 35.6683 36.103 35.6683 36.8786C35.6683 39.5961 37.2687 41.5838 40.6161 41.5838C43.4783 41.5838 45.7581 39.7413 47.0195 35.3266L44.8852 34.5026C43.8179 37.4602 42.8961 37.9949 42.1683 37.9949C41.4406 37.9949 41.0525 37.5102 41.0525 36.5405C41.0525 36.1039 41.1499 35.6193 41.2951 35.0359L42.8478 29.4591C43.2357 28.1496 43.3814 26.9884 43.3814 25.9215C43.3814 21.7496 40.8586 19.5723 37.8026 19.5723C34.9406 19.5723 32.0296 22.1539 30.5746 24.871L31.6415 19.9941H23.3466L22.1822 24.2897H26.0633L23.6733 33.8578C21.7966 38.0297 18.3493 38.0974 17.9166 38.0006C17.2062 37.8403 16.7519 37.5705 16.7519 36.6475C16.7519 36.1148 16.8489 35.3498 17.0915 34.4273L20.7301 19.9941H11.513L10.3486 24.2897H14.1807L11.7071 34.3965" fill="white"/>
</g>
<defs>
<clipPath id="clip0">
<rect width="54" height="54" fill="white" transform="translate(0.5)"/>
</clipPath>
</defs>
</svg>
