<svg width="56" height="54" viewBox="0 0 56 54" fill="none" xmlns="http://www.w3.org/2000/svg">
<g clip-path="url(#clip0)">
<path d="M2.3335 2.31268H53.667V51.6873H2.3335V2.31268Z" fill="url(#paint0_radial)"/>
<path d="M2.33331 2.31329H53.6668V51.6879H2.33331V2.31329ZM0 53.9952H56.0001V0.00610352H0V53.9952ZM37.7534 22.1554C35.91 22.1554 35.2801 23.0783 35.2801 23.8397C35.2801 24.6702 35.7001 25.2471 38.1734 26.5161C41.8368 28.2696 42.9801 29.9538 42.9801 32.4226C42.9801 36.1141 40.1335 38.0983 36.2834 38.0983C34.2534 38.0983 32.5033 37.683 31.5001 37.1063C31.3367 37.0371 31.3134 36.9217 31.3134 36.7371V33.3454C31.3134 33.1148 31.4301 33.0455 31.5935 33.1609C33.0635 34.1069 34.7434 34.5222 36.2834 34.5222C38.1268 34.5222 38.8968 33.7608 38.8968 32.7225C38.8968 31.8919 38.3601 31.1536 36.0034 29.9538C32.69 28.3849 31.3134 26.793 31.3134 24.1397C31.3134 21.1633 33.6701 18.6946 37.7534 18.6946C39.7601 18.6946 41.1601 18.9946 41.9301 19.3406C42.1167 19.456 42.1634 19.6405 42.1634 19.802V22.9629C42.1634 23.1474 42.0467 23.2628 41.8133 23.1935C40.7867 22.5477 39.2701 22.1554 37.7534 22.1554ZM17.6867 24.901C18.2234 24.9472 18.6434 24.9472 19.5767 24.9472C22.3068 24.9472 24.8734 24.0012 24.8734 20.3328C24.8734 17.4026 23.0301 15.9259 19.9268 15.9259C18.9934 15.9259 18.1067 15.9721 17.6867 15.9951V24.901ZM13.5334 12.6497C13.5334 12.4882 13.8601 12.3727 14.0467 12.3727C15.5401 12.3035 17.7568 12.2574 20.0667 12.2574C26.5301 12.2574 29.05 15.7644 29.05 20.2404C29.05 26.1007 24.7567 28.6156 19.4834 28.6156C18.5967 28.6156 18.2934 28.5695 17.6633 28.5695V37.4292C17.6633 37.6138 17.5934 37.7061 17.3834 37.7061H13.8134C13.6267 37.7061 13.5333 37.6369 13.5333 37.4292V12.6497H13.5334Z" fill="#31C5F0"/>
</g>
<defs>
<radialGradient id="paint0_radial" cx="0" cy="0" r="1" gradientUnits="userSpaceOnUse" gradientTransform="translate(19.2402 13.3776) scale(39.0134 37.3493)">
<stop stop-color="#34364E" stop-opacity="0.98"/>
<stop offset="1" stop-color="#0C0824"/>
</radialGradient>
<clipPath id="clip0">
<rect width="56" height="54" fill="white"/>
</clipPath>
</defs>
</svg>
