<svg width="55" height="54" viewBox="0 0 55 54" fill="none" xmlns="http://www.w3.org/2000/svg">
<rect width="55" height="54" rx="12" fill="#00383E"/>
<g clip-path="url(#clip0)">
<path d="M27.1637 17.3699V29.5518H17.1249L27.1637 17.3699ZM27.1637 13C27.1637 15.7838 24.9198 18.0389 22.1497 18.0389C19.3796 18.0389 17.1249 15.7838 17.1249 13H27.1637ZM28.8172 29.5518C28.8172 26.768 31.0611 24.5129 33.8312 24.5129C36.6012 24.5129 38.8452 26.768 38.8452 29.5518H28.8172V29.5518ZM28.8172 25.1819V13H38.8559L28.8172 25.1819ZM34.4324 39.9642C34.9478 39.9749 35.4524 39.7807 35.8282 39.4247L36.5153 40.1692C36.0644 40.6439 35.4309 40.9892 34.4432 40.9892C32.7575 40.9892 31.6731 39.867 31.6731 38.3457C31.6409 36.9106 32.779 35.7345 34.1962 35.7021H34.2821C35.957 35.7021 36.9019 36.9753 36.816 38.7557H32.8756C33.0152 39.5002 33.5305 39.9749 34.4324 39.9642V39.9642ZM35.6349 37.9249C35.5276 37.2343 35.1196 36.7272 34.3036 36.7272C33.5413 36.7272 33.0152 37.1588 32.8756 37.9249H35.6349V37.9249ZM8.50342 39.9102L11.5419 36.8027H8.57857V35.8316H12.9484V36.8243L9.90992 39.9318H12.9913V40.9029H8.50342V39.9102ZM16.4056 39.9642C16.9209 39.9749 17.4256 39.7807 17.7906 39.4247L18.4778 40.1692C18.0268 40.6439 17.3934 40.9892 16.4056 40.9892C14.7199 40.9892 13.6355 39.867 13.6355 38.3457C13.6033 36.9106 14.7414 35.7345 16.1586 35.7021H16.2445C17.9195 35.7021 18.8643 36.9753 18.7784 38.7557H14.8488C14.9884 39.5002 15.5037 39.9749 16.4056 39.9642V39.9642ZM17.6081 37.9249C17.5007 37.2343 17.0927 36.7272 16.2768 36.7272C15.5144 36.7272 14.9884 37.1588 14.8488 37.9249H17.6081ZM25.36 38.3565C25.36 36.738 26.5625 35.7237 27.8938 35.7237C28.538 35.7129 29.15 35.9934 29.5795 36.479V33.4902H30.6531V40.8921H29.5795V40.1907C29.1607 40.6979 28.538 41 27.8831 40.9892C26.5947 40.9892 25.36 39.9642 25.36 38.3565V38.3565ZM29.6331 38.3457C29.6117 37.4609 28.8708 36.7595 27.9904 36.7811C27.11 36.8027 26.4121 37.5472 26.4336 38.432C26.4551 39.306 27.1637 39.9965 28.0334 39.9965C28.9567 39.9965 29.6331 39.2628 29.6331 38.3457ZM37.5246 39.8131L38.5016 39.306C38.7593 39.7807 39.2639 40.0613 39.8007 40.0505C40.4127 40.0505 40.7241 39.7376 40.7241 39.3815C40.7241 38.9715 40.1336 38.8852 39.5001 38.7557C38.6412 38.5723 37.75 38.2917 37.75 37.2451C37.75 36.4466 38.5123 35.7021 39.7041 35.7129C40.6489 35.7129 41.3468 36.0906 41.7441 36.6948L40.8422 37.1911C40.5845 36.8135 40.1551 36.5977 39.7041 36.6085C39.1243 36.6085 38.8344 36.889 38.8344 37.2127C38.8344 37.5796 39.2961 37.6767 40.0262 37.8385C40.8529 38.022 41.7978 38.2917 41.7978 39.3491C41.7978 40.0505 41.1858 40.9892 39.7471 40.9784C38.6949 40.9892 37.954 40.5684 37.5246 39.8131V39.8131ZM44.7074 38.637L43.8592 39.5757V40.8921H42.7855V33.4902H43.8592V38.3349L46.1354 35.8208H47.4452L45.4697 37.9896L47.4989 40.8921H46.2857L44.7074 38.637ZM22.1175 35.7129C20.8398 35.7129 19.7662 36.5437 19.7662 37.9249V40.8921H20.8613V38.0651C20.8613 37.2343 21.3337 36.738 22.1497 36.738C22.9657 36.738 23.3629 37.2343 23.3629 38.0651V40.8921H24.4473V37.9249C24.4581 36.5437 23.3844 35.7129 22.1175 35.7129Z" fill="white"/>
</g>
<defs>
<clipPath id="clip0">
<rect width="39" height="28" fill="white" transform="translate(8.5 13)"/>
</clipPath>
</defs>
</svg>
